PathFileType	4	(X/Y/Z)	./resultDataOpenSim/trcMotMarkerGrf/sub10/qtm-13-07.trc
DataRate	CameraRate	NumFrames	NumMarkers	Units	OrigDataRate	OrigDataStartFrame	OrigNumFrames
250.000000	250.000000	9	24	m	250.000000	1	494
Frame#	Time	L.Toe.Tip			R.Toe.Tip			L.Ankle.Lat			R.Ankle.Lat			L.Ankle.Med			R.Ankle.Med			L.Heel			R.Heel			L.Knee.Lat			R.Knee.Lat			L.Knee.Med			R.Knee.Med			L.Thigh.Upper			R.Thigh.Upper			L.ASIS			R.ASIS			V.Sacral			L.Acromium			R.Acromium			C7			L.Elbow			R.Elbow			L.Wrist.Lat			R.Wrist.Lat
		X1	Y1	Z1	X2	Y2	Z2	X3	Y3	Z3	X4	Y4	Z4	X5	Y5	Z5	X6	Y6	Z6	X7	Y7	Z7	X8	Y8	Z8	X9	Y9	Z9	X10	Y10	Z10	X11	Y11	Z11	X12	Y12	Z12	X13	Y13	Z13	X14	Y14	Z14	X15	Y15	Z15	X16	Y16	Z16	X17	Y17	Z17	X18	Y18	Z18	X19	Y19	Z19	X20	Y20	Z20	X21	Y21	Z21	X22	Y22	Z22	X23	Y23	Z23	X24	Y24	Z24

1	0	-1.5210336	0.03927326	-0.059370414	-0.91532141	0.1317471	0.03714175	-1.6547853	0.064967615	-0.10087846	-1.0467045	0.077578948	0.055662416	-1.6494012	0.093429767	-0.019593115	-1.0357215	0.12197801	-0.020093481	NaN	NaN	NaN	-1.0725877	0.037990415	-0.0053258158	-1.5173845	0.43137871	-0.14305516	-1.2074961	0.4444872	0.11339372	-1.520658	0.41363928	-0.02132122	-1.193074	0.4568279	-0.016278113	-1.4150957	0.81242846	-0.21024609	-1.3531784	0.83433952	0.16886582	-1.3395007	0.91777469	-0.15535847	-1.2956813	0.92790743	0.087985135	NaN	NaN	NaN	-1.3442355	1.3830471	-0.18458817	-1.3712071	1.3791662	0.14375083	-1.4429414	1.4235032	-0.030400095	-1.3971902	1.0332736	-0.2289099	-1.5192782	1.0611971	0.17893362	-1.1905207	0.89246082	-0.23790665	-1.416247	0.84642681	0.24325722
2	0.004	-1.5210321	0.039256032	-0.059412431	-0.90504482	0.13409458	0.035152436	-1.6549721	0.065684037	-0.10075149	-1.0359792	0.078428109	0.055918321	-1.6492891	0.093979213	-0.019536449	-1.0261982	0.12285821	-0.020067925	NaN	NaN	NaN	-1.0617906	0.038812832	-0.0028222501	-1.5145893	0.43085097	-0.14314876	-1.201961	0.44334936	0.11376317	-1.5172213	0.41333013	-0.021462181	-1.1890525	0.45500008	-0.016139624	-1.411017	0.81158295	-0.21028311	-1.3477396	0.83248441	0.16887358	-1.3353275	0.9169244	-0.15548493	-1.2906761	0.9267871	0.087734325	NaN	NaN	NaN	-1.3397659	1.3816246	-0.18467065	-1.3664234	1.3775927	0.14372438	-1.4384751	1.4221416	-0.030455326	-1.3917128	1.031596	-0.22791581	-1.5150406	1.0598384	0.17895508	-1.1841897	0.89223044	-0.23705678	-1.4127995	0.84473855	0.24317686
3	0.008	-1.5210269	0.039230158	-0.059446334	-0.89487279	0.13614089	0.033585197	-1.6550099	0.066327804	-0.10062592	-1.0257077	0.079145198	0.056091541	-1.6491482	0.094476747	-0.019457644	-1.0169604	0.12363822	-0.020043725	NaN	NaN	NaN	-1.0513785	0.039447047	-0.0010306615	-1.5117446	0.43031481	-0.14320563	-1.1963994	0.44228412	0.11413812	-1.5138215	0.41294408	-0.021586946	-1.1849692	0.45326044	-0.015944275	-1.4068883	0.81072524	-0.21025915	-1.342118	0.8306875	0.16889595	-1.3310879	0.91608333	-0.1555845	-1.2856718	0.92564113	0.087490373	NaN	NaN	NaN	-1.3352744	1.3802061	-0.18471294	-1.361656	1.3760393	0.14373776	-1.4339906	1.4207884	-0.030475916	-1.3863138	1.029902	-0.22714854	-1.5109151	1.0586541	0.17902662	-1.1778755	0.89199557	-0.23619154	-1.409309	0.84305427	0.24308987
4	0.012	-1.5210139	0.039196945	-0.059467917	-0.88494945	0.13777794	0.032446786	-1.6548805	0.066912521	-0.10049386	-1.0161137	0.079657291	0.056162471	-1.6488644	0.094944296	-0.019324939	-1.0081777	0.12424755	-0.020008839	NaN	NaN	NaN	-1.0415822	0.039834263	-5.6338818e-05	-1.5087968	0.42976216	-0.14321297	-1.1907771	0.44131657	0.11448473	-1.510494	0.41245245	-0.021669264	-1.1807626	0.45166068	-0.015668707	-1.4026774	0.80985017	-0.21017986	-1.3363193	0.82894822	0.16892092	-1.3267731	0.91523712	-0.15567019	-1.2806397	0.92446347	0.087253152	NaN	NaN	NaN	-1.330751	1.3787981	-0.18471241	-1.3568953	1.3745062	0.14379227	-1.4294741	1.4194509	-0.03044398	-1.3810156	1.0281797	-0.2266561	-1.5068821	1.0575939	0.1790745	-1.1715938	0.89174517	-0.23531414	-1.4057032	0.84139412	0.243006
5	0.016	-1.5209931	0.039160397	-0.059477001	-0.8755459	0.13902719	0.031447582	-1.6546655	0.067488444	-0.10034742	-1.007205	0.079949793	0.056183035	-1.648246	0.095466399	-0.019092852	-0.99990948	0.12465288	-0.019950801	NaN	NaN	NaN	-1.0324926	0.040017372	0.00043734847	-1.5057273	0.42919821	-0.1431743	-1.1849956	0.44047704	0.11475806	-1.5072244	0.41188027	-0.02169324	-1.1763917	0.45022427	-0.015340112	-1.3984065	0.80895463	-0.21009687	-1.330456	0.82724193	0.16893056	-1.3224285	0.91436395	-0.15578096	-1.2755859	0.92326148	0.087014252	NaN	NaN	NaN	-1.3262097	1.377407	-0.18469285	-1.3521067	1.3729932	0.14385979	-1.4249394	1.4181292	-0.03038789	-1.3758154	1.0264333	-0.22637444	-1.502805	1.0564655	0.17898633	-1.1653735	0.8914665	-0.23445454	-1.4019883	0.83977314	0.24292514
6	0.02	-1.5209669	0.039121466	-0.05947692	-0.86693526	0.13985794	0.030407906	-1.6544368	0.068078683	-0.10018885	-0.99890552	0.080032521	0.056223837	-1.6471618	0.09612008	-0.018732903	-0.99215109	0.12484163	-0.01986285	NaN	NaN	NaN	-1.0241239	0.040042558	0.00077993175	-1.5025639	0.42863015	-0.14310972	-1.1788917	0.43982355	0.11494517	-1.503956	0.41126392	-0.021661806	-1.1718308	0.44895886	-0.015014575	-1.3941272	0.80802628	-0.2100669	-1.3245345	0.82557857	0.1689383	-1.3180794	0.91346273	-0.15594089	-1.2705306	0.9220424	0.086775104	NaN	NaN	NaN	-1.3216675	1.3760323	-0.18467377	-1.3472507	1.371512	0.14391733	-1.4203988	1.4168139	-0.030340161	-1.3706931	1.0246881	-0.22622946	-1.4985587	1.0551909	0.17877287	-1.1592264	0.89115251	-0.23363457	-1.3982549	0.83817968	0.24282602
7	0.024	-1.5209343	0.039084276	-0.059473918	-0.85918196	0.14018284	0.029371961	-1.6542128	0.068692431	-0.10003136	-0.9911609	0.079916017	0.056329708	-1.6457533	0.096895907	-0.018296478	-0.98488911	0.12479993	-0.01974	NaN	NaN	NaN	-1.0164694	0.039915237	0.0011353872	-1.4993505	0.42805065	-0.14305653	-1.1723205	0.43940252	0.11507722	-1.5006531	0.41062102	-0.021581793	-1.1670704	0.44786792	-0.014744319	-1.3898657	0.80704811	-0.21010966	-1.3184916	0.82399535	0.16896897	-1.3137138	0.91255025	-0.15614318	-1.2654293	0.92081794	0.086560565	NaN	NaN	NaN	-1.3171325	1.374671	-0.18466275	-1.3423248	1.3700721	0.14396227	-1.4158402	1.4155008	-0.030285244	-1.3655957	1.0229815	-0.22611428	-1.4941173	1.0538586	0.17854768	-1.1531432	0.89080336	-0.23284473	-1.3945485	0.83659593	0.24269325
8	0.028	-1.520894	0.039055109	-0.05947266	-0.85216482	0.13997205	0.028456092	-1.6539807	0.069346456	-0.099895411	-0.98396523	0.079601941	0.056515687	-1.6444	0.097696053	-0.017905543	-0.9781246	0.12450441	-0.019581199	NaN	NaN	NaN	-1.0095196	0.039615075	0.0015516482	-1.4961094	0.42745093	-0.143042	-1.165115	0.43926267	0.1152246	-1.4972993	0.40995361	-0.021463891	-1.1621004	0.44696252	-0.01456291	-1.3856004	0.80602153	-0.21016544	-1.3123368	0.82251329	0.1690207	-1.3093114	0.91163227	-0.15636619	-1.2602072	0.91959997	0.086395376	NaN	NaN	NaN	-1.3125943	1.3733246	-0.1846573	-1.3373618	1.3686677	0.14400618	-1.4112491	1.414197	-0.030198327	-1.3604542	1.0213377	-0.22589395	-1.4895339	1.0525606	0.17837367	-1.1471138	0.8904239	-0.23206748	-1.3908313	0.83502112	0.24253038
9	0.032	-1.5208491	0.039035107	-0.059473979	-0.84575683	0.13926272	0.027732142	-1.6537237	0.070050499	-0.099797276	-0.97734658	0.079087024	0.056773707	-1.6434129	0.098417829	-0.017659656	-0.97187199	0.12393085	-0.0193953	NaN	NaN	NaN	-1.0032596	0.039124995	0.0020310198	-1.4928381	0.42683228	-0.1430628	-1.1571057	0.43945902	0.11544886	-1.4938561	0.40926135	-0.021336936	-1.15688	0.44625505	-0.014476115	-1.3812864	0.80498462	-0.2101432	-1.3061117	0.82114178	0.16908641	-1.3048592	0.91069439	-0.15659665	-1.2548722	0.91838342	0.086265062	NaN	NaN	NaN	-1.308024	1.3720009	-0.18464626	-1.3323829	1.3672938	0.14405644	-1.4066264	1.4129108	-0.030082749	-1.3552338	1.0197618	-0.22549278	-1.4848792	1.0513024	0.17821261	-1.1411339	0.89002	-0.23129756	-1.387073	0.83346836	0.24234818
